Coordinates
version=1
nRows=17
nColumns=34
inDegrees=yes

Units are S.I. units (second, meters, Newtons, ...)
If the header above contains a line with 'inDegrees', this indicates whether rotational values are in degrees (yes) or radians (no).

endheader
time	pelvis_tilt	pelvis_list	pelvis_rotation	pelvis_tx	pelvis_ty	pelvis_tz	hip_flexion_r	hip_adduction_r	hip_rotation_r	knee_angle_r	ankle_angle_r	subtalar_angle_r	mtp_angle_r	hip_flexion_l	hip_adduction_l	hip_rotation_l	knee_angle_l	ankle_angle_l	subtalar_angle_l	mtp_angle_l	lumbar_extension	lumbar_bending	lumbar_rotation	arm_flex_r	arm_add_r	arm_rot_r	elbow_flex_r	pro_sup_r	arm_flex_l	arm_add_l	arm_rot_l	elbow_flex_l	pro_sup_l
      1.78000000	      0.57786944	      2.47225692	      1.02394679	     -0.10333936	      0.89939747	     -0.23660653	     24.52229330	     -0.67773280	     -6.18285947	    -11.06461391	      1.76107271	      0.06643262	     10.38087616	    -18.60257027	      3.49711591	      1.46410244	    -12.46787474	     10.04525816	      7.26666444	     13.69368441	     -5.50640661	     -0.16156965	     -8.44064261	     -8.94745649	    -15.04704259	      7.00535695	      9.72870999	     90.00000000	      4.40994061	    -19.99897205	     12.77402771	     43.58772155	     90.00000000
      1.79000000	      0.52625010	      1.99474445	      0.95552007	     -0.08825874	      0.89839401	     -0.23469752	     24.23767377	      0.09333134	     -6.00783857	    -11.75508533	     -1.54314189	     -2.99108088	     10.44300819	    -18.54738063	      2.78301505	      0.77146933	    -14.11788990	      9.03878228	      8.19458715	     15.41330651	     -5.16737350	      0.38905146	     -8.37373843	     -9.04737846	    -15.17500620	      8.45963734	     10.02584215	     90.00000000	      3.73310088	    -19.80072993	     12.41076507	     43.75828805	     90.00000000
      1.80000000	      0.43567748	      1.58043748	      0.91742059	     -0.07319285	      0.89780529	     -0.23331431	     24.04874242	      0.56138712	     -6.41933116	    -12.21815562	     -3.94562643	     -3.00715163	      9.93012816	    -18.39667153	      2.22812813	      0.52720484	    -15.77960779	      7.63568790	      8.20044519	     15.54586137	     -4.79589276	      0.94270566	     -8.19125646	     -9.22218089	    -15.33837054	      8.49194422	     10.51821007	     90.00000000	      3.18598830	    -19.44230270	     12.27597302	     43.69905518	     90.00000000
      1.81000000	      0.27367141	      0.70146083	      0.70260216	     -0.05825006	      0.89741747	     -0.23110409	     23.89278577	      1.75488075	     -5.68673299	    -12.85205571	     -6.00214260	     -5.55966171	      9.94997103	    -17.87831467	      1.10235341	     -0.54151134	    -17.90245917	      6.15191222	      9.39476031	     17.70445637	     -4.29932536	      1.98000580	     -7.92246728	     -9.07742310	    -15.47553261	      9.30432352	     10.29171055	     90.00000000	      2.67989071	    -19.04248287	     12.20241806	     42.97076883	     90.00000000
      1.82000000	      0.11344042	      0.05242052	      0.49027652	     -0.04343359	      0.89731606	     -0.22945988	     24.30930637	      2.50807308	     -5.52341290	    -15.00254498	     -6.74119243	     -5.50627128	     10.05840401	    -17.25921545	      0.34146309	     -1.02178624	    -20.10310453	      4.00669631	      9.12051893	     18.39002590	     -3.86049451	      2.81567565	     -7.58478284	     -9.08257236	    -15.67193556	      9.39091296	     10.55525447	     90.00000000	      2.17180381	    -18.57491087	     12.16212315	     42.45506220	     90.00000000
      1.83000000	     -0.19786676	     -0.60225345	      0.17838486	     -0.02888443	      0.89713904	     -0.22744297	     24.88116558	      3.40470969	     -4.79344653	    -17.01238769	     -7.69310632	     -6.47245952	     11.84970273	    -16.22647081	     -0.40040200	     -1.65742426	    -22.45382552	     -0.39354134	      7.68758639	     35.87120869	     -3.27146528	      3.59944252	     -7.29256324	     -8.69413039	    -15.83918777	     11.94520338	      9.95990450	     90.00000000	      1.60402316	    -18.17112440	     12.11588099	     41.69852484	     90.00000000
      1.84000000	     -0.27854930	     -1.32024157	     -0.06628585	     -0.01425185	      0.89739678	     -0.22562495	     24.93660307	      4.29169400	     -4.38756977	    -18.46545754	     -7.97634983	     -6.26113566	     11.76251416	    -15.19474280	     -1.27464929	     -2.19746485	    -25.32552195	     -3.26607044	      7.25737285	     35.92009510	     -2.97998398	      4.46498308	     -6.95618082	     -8.68547004	    -16.05533145	     11.66349433	     10.60592371	     90.00000000	      1.02045517	    -17.68783280	     11.92679729	     41.16637636	     90.00000000
      1.85000000	     -0.40615819	     -1.97040464	     -0.36429467	      0.00024245	      0.89759275	     -0.22355038	     24.86184253	      5.19764940	     -4.01220118	    -19.72928234	     -7.62673279	     -6.50889522	     11.63819604	    -13.95880460	     -2.12679455	     -2.71621225	    -28.28295425	     -6.62700777	      6.77704770	     36.24531149	     -2.66360057	      5.23374904	     -6.57854367	     -8.58166196	    -16.22115069	     11.44579386	     10.92045758	     90.00000000	      0.46760651	    -17.30860890	     11.87525301	     40.42787073	     90.00000000
      1.86000000	     -0.48702658	     -2.60815166	     -0.60289307	      0.01455935	      0.89798173	     -0.22110226	     24.54725661	      6.15359458	     -3.60668396	    -20.77187112	     -6.65341989	     -6.84185616	     11.58711908	    -12.63784893	     -3.09334014	     -3.12848434	    -31.28093792	    -10.54297255	      6.47099417	     36.73089554	     -2.43231989	      5.91609869	     -6.27002583	     -8.36928059	    -16.28478135	     11.29411770	     11.30017962	     90.00000000	     -0.09286121	    -17.01079086	     11.85598464	     39.64522958	     90.00000000
      1.87000000	     -0.57259086	     -3.20285975	     -0.87788294	      0.02841120	      0.89853241	     -0.21877385	     24.07742842	      7.10137003	     -2.97519599	    -21.50843493	     -5.26040363	     -6.75470965	      7.44534739	    -11.26608402	     -3.94431958	     -3.32872151	    -34.03812166	    -15.34090497	      5.14920769	     50.94415361	     -2.25542012	      6.58023164	     -5.76520442	     -8.13717695	    -16.39383071	     11.35048077	     11.46986520	     90.00000000	     -0.31957680	    -16.74709986	     12.59813080	     38.40958296	     90.00000000
      1.88000000	     -0.47593673	     -3.86410497	     -0.91047507	      0.04222031	      0.89955467	     -0.21697909	     23.19079418	      7.97242186	     -2.73458477	    -21.86591311	     -4.16767687	     -7.00428718	      7.64324212	     -9.86917386	     -4.86961484	     -3.06040759	    -37.19121747	    -18.38119631	      5.02344056	     50.46460750	     -2.33289377	      7.30643604	     -5.62635678	     -7.81110117	    -16.54835254	     11.13458895	     12.03435013	     90.00000000	     -0.81890707	    -16.36650128	     12.41238202	     37.67635503	     90.00000000
      1.89000000	     -0.32222684	     -4.53650214	     -0.84506104	      0.05549000	      0.90086661	     -0.21544331	     22.13184748	      8.80147083	     -2.55091511	    -21.97600954	     -3.20930282	     -7.11349023	      7.78423942	     -8.26952800	     -5.72882935	     -2.60385963	    -40.47924081	    -21.03881152	      4.37789119	     49.59918050	     -2.56779915	      8.07043460	     -5.47512620	     -7.40923856	    -16.67910928	     10.91742132	     12.50365002	     90.00000000	     -1.10539985	    -16.02112199	     12.49690104	     36.67216437	     90.00000000
      1.90000000	     -0.20006326	     -5.24364985	     -0.63971163	      0.06863359	      0.90230436	     -0.21431108	     20.96094277	      9.61791924	     -2.51558991	    -21.81277052	     -2.36700758	     -7.10877359	      7.79884554	     -6.46010769	     -6.60084797	     -2.00408054	    -43.86764340	    -22.43281121	      3.01231960	     48.26143214	     -2.74744028	      8.87721885	     -5.37543012	     -7.02434618	    -16.86717701	     10.72293231	     13.02406840	     90.00000000	     -1.24242685	    -15.59981246	     12.79629883	     35.33639766	     90.00000000
      1.91000000	     -0.12395650	     -5.70842845	     -0.31893872	      0.08127934	      0.90378798	     -0.21382227	     19.90033669	     10.08104947	     -2.63917955	    -21.72468301	     -1.13049703	     -6.85384163	      5.80473795	     -4.35035923	     -7.06643190	     -1.00633242	    -47.60168482	    -20.00403695	      3.24107226	     32.41200477	     -2.89151968	      9.49799168	     -5.13870109	     -6.86731437	    -17.03215296	      9.59505929	     14.04175150	     90.00000000	     -0.75514406	    -15.20984545	     14.65225961	     33.07957618	     90.00000000
      1.92000000	      0.07351158	     -6.11581855	      0.07446535	      0.09379074	      0.90545138	     -0.21335614	     18.60201068	     10.49389224	     -2.86038481	    -21.38980163	     -0.28310440	     -6.63949653	      5.92529982	     -2.35801494	     -7.45679442	     -0.14213062	    -50.81379410	    -18.71753911	      2.93196827	     32.69144099	     -3.19057716	      9.99324692	     -5.15192482	     -6.36613949	    -17.23857456	      9.72103274	     14.61519019	     90.00000000	     -0.75011406	    -14.82629262	     15.05905465	     31.64661969	     90.00000000
      1.93000000	      0.14392005	     -6.26048017	      0.42360237	      0.10606568	      0.90710800	     -0.21300306	     17.41246058	     10.61560982	     -3.23631258	    -20.97421908	      0.72612272	     -6.16789575	      5.87158656	     -0.22488423	     -7.47656364	      0.63352183	    -53.56513356	    -17.73079177	      1.60838812	     32.70354403	     -3.36636831	     10.21474221	     -5.05353757	     -5.90033556	    -17.43463558	      9.91547389	     15.16332924	     90.00000000	     -0.50715146	    -14.52407377	     16.44815240	     29.77945143	     90.00000000
      1.94000000	      0.29966040	     -6.40198316	      0.86490490	      0.11824135	      0.90894048	     -0.21258584	     16.02557538	     10.76554523	     -3.58921711	    -20.30224811	      1.40296983	     -6.02203132	      5.85459316	      1.83174930	     -7.45465656	      1.44624477	    -55.96834359	    -16.66873846	      0.34056280	     32.71461458	     -3.62631266	     10.36937932	     -5.07687270	     -5.33387272	    -17.53450279	      9.91289143	     15.76421062	     90.00000000	     -0.46446621	    -14.23233674	     16.96146860	     28.33150813	     90.00000000
